# xmcd
#
# Track frame offsets:
#	150
#	12160
#	37960
#	59320
#	96445
#	136120
#	164365
#	167655
#	171970
#
# Disc length: 2604 seconds
#
# Revision: 0
# Processed by: cddbd v1.5.1PL0 Copyright (c) Steve Scherf et al.
# Submitted via: EasyCDDAExtractor 7.1.3.1
#
DISCID=6c0a2a09
DTITLE=Black Sabbath - Westfalenhalle Dortmund 09-06-05 Disc 1
DYEAR=2005
DGENRE=Hard Rock
TTITLE0=Intro
TTITLE1=NIB
TTITLE2=After Forever
TTITLE3=War Pigs
TTITLE4=Dirty Women
TTITLE5=Fairies Wear Boots
TTITLE6=Symptom Of The Universe
TTITLE7=Sweet Leaf
TTITLE8=Electric Funeral
EXTD=
EXTT0=
EXTT1=
EXTT2=
EXTT3=
EXTT4=
EXTT5=
EXTT6=
EXTT7=
EXTT8=
PLAYORDER=
